<?xml version="1.0" encoding="utf-8"?>
<!-- Generator: Adobe Illustrator 16.0.0, SVG Export Plug-In . SVG Version: 6.00 Build 0)  -->
<!DOCTYPE svg PUBLIC "-//W3C//DTD SVG 1.1//EN" "http://www.w3.org/Graphics/SVG/1.1/DTD/svg11.dtd">
<svg version="1.1" id="Calque_1" xmlns="http://www.w3.org/2000/svg" xmlns:xlink="http://www.w3.org/1999/xlink" x="0px" y="0px"
	 width="70.157px" height="42.207px" viewBox="0 0 70.157 42.207" enable-background="new 0 0 70.157 42.207" xml:space="preserve">
<g>
	<path fill="#294E34" d="M40.445,40.563c0-12.925,0-25.674,0-38.749c6.158-1.612,12.393-1.798,18.635-0.893
		c4.354,0.633,8.179,2.406,9.407,7.189c1.297,5.045,0.009,9.222-4.979,12.162c5.474,2.408,7.499,6.533,6.33,12.041
		c-1.183,5.563-5.463,7.516-10.505,8.418C53.062,41.85,46.818,41.727,40.445,40.563z M48.618,34.841
		c4.798-0.016,9.545,1.62,12.864-2.665c1.315-1.697,1.3-4.214-0.263-5.887c-3.595-3.855-8.206-2.158-12.604-2.38
		C48.618,27.725,48.618,31.007,48.618,34.841z M48.853,7.253c0,3.48,0,6.65,0,10.036c4.156-0.635,8.609,1.427,11.486-2.721
		c1.16-1.673,1.23-3.889-0.188-5.46C56.929,5.544,52.837,6.953,48.853,7.253z"/>
	<path fill="#5CAE73" d="M36.021,41.289c-3.087,0-5.466,0-8.165,0c-1.051-3.428-2.096-6.839-3.229-10.539c-4.315,0-8.6,0-13.431,0
		c-0.943,3.162-1.958,6.553-3.052,10.216c-2.51,0-4.963,0-8.144,0C3.936,27.34,7.781,14.022,11.658,0.597c4.246,0,8.253,0,12.555,0
		C28.111,14.03,31.982,27.373,36.021,41.289z M22.598,22.977c-1.535-5.624-2.888-10.583-4.635-16.988
		c-1.816,6.474-3.241,11.554-4.769,16.988C16.433,22.977,19.206,22.977,22.598,22.977z"/>
</g>
</svg>
