<?xml version="1.0" encoding="utf-8"?>
<!-- Generator: Adobe Illustrator 16.0.0, SVG Export Plug-In . SVG Version: 6.00 Build 0)  -->
<!DOCTYPE svg PUBLIC "-//W3C//DTD SVG 1.1//EN" "http://www.w3.org/Graphics/SVG/1.1/DTD/svg11.dtd">
<svg version="1.1" id="Calque_1" xmlns="http://www.w3.org/2000/svg" xmlns:xlink="http://www.w3.org/1999/xlink" x="0px" y="0px"
	 width="358.438px" height="42.207px" viewBox="0 0 358.438 42.207" enable-background="new 0 0 358.438 42.207"
	 xml:space="preserve">
<g>
	<path fill="#5CAE73" d="M165.612,0.784c2.99,0,5.213,0,7.713,0c0,13.483,0,26.808,0,40.495c-2.64,0-5.263,0-8.415,0
		c-4.933-8.24-10.075-16.834-15.882-26.534c0,9.552,0,17.85,0,26.16c-2.79,1.146-5.227,0.841-7.923,0.313
		c0-13.421,0-26.726,0-40.314c2.81,0,5.447,0,8.44,0c4.971,8.357,10.063,16.922,16.065,27.013
		C165.612,17.796,165.612,9.484,165.612,0.784z"/>
	<path fill="#294E34" d="M319.729,0.907c0,13.252,0,26.268,0,39.596c-2.713,0-5.349,0-8.466,0
		c-4.926-8.083-10.06-16.503-15.909-26.101c0,9.504,0,17.741,0,26.185c-2.858,0-5.194,0-7.781,0c0-13.252,0-26.397,0-39.755
		c2.736,0,5.378,0,8.279,0c5.052,8.276,10.166,16.654,16.046,26.283c0-9.626,0-17.777,0-26.208
		C314.603,0.907,316.928,0.907,319.729,0.907z"/>
	<path fill="#294E34" d="M216.445,40.352c0-12.925,0-25.675,0-38.75c6.158-1.612,12.392-1.798,18.634-0.893
		c4.355,0.633,8.179,2.406,9.408,7.189c1.296,5.045,0.008,9.222-4.979,12.162c5.474,2.409,7.499,6.534,6.33,12.041
		c-1.182,5.563-5.463,7.516-10.505,8.418C229.062,41.639,222.818,41.516,216.445,40.352z M224.618,34.63
		c4.798-0.016,9.545,1.62,12.865-2.665c1.315-1.697,1.299-4.214-0.263-5.887c-3.595-3.855-8.206-2.158-12.604-2.38
		C224.618,27.514,224.618,30.796,224.618,34.63z M224.853,7.042c0,3.48,0,6.65,0,10.036c4.156-0.635,8.609,1.427,11.486-2.721
		c1.16-1.673,1.231-3.889-0.188-5.46C232.929,5.333,228.837,6.741,224.853,7.042z"/>
	<path fill="#5CAE73" d="M71.127,41.457c-3.435,0-6.09,0-9.037,0c-3.067-4.691-6.185-9.458-9.547-14.602
		c-1.195-0.069-2.624-0.152-4.571-0.266c0,5.061,0,9.792,0,14.783c-2.985,0-5.472,0-8.201,0c0-13.244,0-26.267,0.006-39.291
		C48.966-1.956,62.674,0.138,66.37,6.14c3.915,6.358,1.93,13.611-5.662,19.454C64.021,30.639,67.364,35.727,71.127,41.457z
		 M48.076,19.45c4.208,0.336,8.446,1.55,11.208-2.611c1.598-2.409,1.495-5.384-0.409-7.615c-2.984-3.492-6.908-2.548-10.799-1.833
		C48.076,11.535,48.076,15.376,48.076,19.45z"/>
	<path fill="#5CAE73" d="M118.054,34.339c6.067,0,11.845,0,17.776,0c0,2.611,0,4.679,0,7.022c-8.753,0-17.386,0-26.312,0
		c0-13.471,0-26.756,0-40.395c8.5,0,16.978,0,25.677,0c1.067,1.917,0.602,4.086,0.205,6.723c-5.665,0-11.292,0-17.266,0
		c0,3.202,0,5.941,0,9.146c4.775,0,9.509,0,14.172,0c1.089,2.583,0.905,4.735,0.209,7.354c-4.732,0-9.465,0-14.463,0
		C118.054,27.586,118.054,30.527,118.054,34.339z"/>
	<path fill="#294E34" d="M259.405,0.804c4.536,0,8.414,0,12.531,0c3.883,13.151,7.739,26.198,11.718,39.667
		c-2.816,0-5.263,0-8.138,0c-0.982-3.17-2.036-6.562-3.131-10.093c-4.451,0-8.766,0-13.46,0c-1.014,3.33-2.049,6.728-3.124,10.261
		c-2.585,0-5.092,0-8.152,0C251.612,27.208,255.495,14.053,259.405,0.804z M265.681,6.013c-1.794,6.405-3.243,11.577-4.745,16.94
		c3.547,0,6.349,0,9.465,0C268.888,17.522,267.451,12.366,265.681,6.013z"/>
	<path fill="#5CAE73" d="M36.021,41.5c-3.087,0-5.466,0-8.165,0c-1.051-3.428-2.096-6.839-3.229-10.539c-4.315,0-8.599,0-13.43,0
		c-0.944,3.162-1.958,6.553-3.052,10.216c-2.51,0-4.963,0-8.144,0C3.936,27.551,7.781,14.234,11.658,0.808c4.247,0,8.253,0,12.555,0
		C28.111,14.241,31.982,27.584,36.021,41.5z M22.598,23.188c-1.535-5.624-2.888-10.583-4.635-16.988
		c-1.816,6.474-3.241,11.554-4.768,16.988C16.433,23.188,19.206,23.188,22.598,23.188z"/>
	<path fill="#294E34" d="M334.764,40.62c-2.873,0-5.362,0-8.088,0c0-13.24,0-26.374,0-39.753c2.573,0,5.049,0,7.956,0
		c0,4.984,0,10.011,0,16.353c8.652-2.948,9.062-11.724,14.765-16.433c2.011,0,4.689,0,8.021,0
		c-4.104,6.534-8.044,12.812-12.104,19.273c4.282,6.66,8.566,13.32,13.125,20.411c-3.124,0-5.853,0-9.058,0
		c-3.316-5.051-6.844-10.424-10.58-16.111c-1.077-0.068-2.355-0.151-4.037-0.258C334.764,29.756,334.764,35.109,334.764,40.62z"/>
	<path fill="#5CAE73" d="M101.784,1.462c0,2.077,0,4,0,6.288c-6.35,0.362-13.518-2.331-18.408,3.823
		c-3.113,3.917-2.835,8.785-2.249,13.423c0.997,7.898,6.112,10.359,13.964,9.663c0-4.206,0-8.321,0-12.739c2.702,0,4.877,0,7.435,0
		c0,6.325,0,12.662,0,18.985c-10.854,3.093-22.156,0.522-26.938-6.093c-4.726-6.537-4.789-20.271-0.125-27.026
		C80.148,0.997,90.383-1.56,101.784,1.462z"/>
	<path fill="#5CAE73" d="M197.424,41.264c-2.895,0-5.251,0-8.205,0c0-10.789,0-21.651,0-33.015c-4.242,0-7.907,0-11.921,0
		c0-2.663,0-4.816,0-7.308c10.424,0,20.842,0,31.599,0c0,2.125,0,4.271,0,6.972c-3.63,0-7.288,0-11.473,0
		C197.424,19.307,197.424,30.174,197.424,41.264z"/>
</g>
</svg>
