<?xml version="1.0" encoding="utf-8"?>
<!-- Generator: Adobe Illustrator 16.0.0, SVG Export Plug-In . SVG Version: 6.00 Build 0)  -->
<!DOCTYPE svg PUBLIC "-//W3C//DTD SVG 1.1//EN" "http://www.w3.org/Graphics/SVG/1.1/DTD/svg11.dtd">
<svg version="1.1" id="Calque_1" xmlns="http://www.w3.org/2000/svg" xmlns:xlink="http://www.w3.org/1999/xlink" x="0px" y="0px"
	 width="88px" height="88px" viewBox="-14.721 -12.114 88 88" enable-background="new -14.721 -12.114 88 88" xml:space="preserve">
<g>
	<path fill="#010101" d="M61.055,19.026c0.03,9.997-1.261,19.727-5.939,28.746c-5.454,10.513-14.132,16.966-25.452,20.057
		c-0.361,0.099-0.672,0.009-1.006-0.085C14.856,63.93,5.622,55.211,0.849,41.761c-2.55-7.187-3.388-14.656-3.345-22.239
		c0.025-4.591,0.415-9.158,1.211-13.686c0.101-0.575,0.318-0.84,0.89-1.012C9.302,1.9,18.99-1.046,28.677-4
		c0.411-0.125,0.766-0.136,1.182-0.009c9.688,2.954,19.377,5.902,29.075,8.822c0.615,0.186,0.82,0.486,0.924,1.089
		C60.6,10.245,60.998,14.618,61.055,19.026z M59.482,18.991c-0.024-3.275-0.354-7.591-1.015-11.883
		c-0.093-0.607-0.339-0.885-0.939-1.065C48.34,3.273,39.161,0.479,29.986-2.322c-0.471-0.144-0.891-0.162-1.368-0.016
		c-9.206,2.81-18.414,5.612-27.63,8.394c-0.562,0.168-0.802,0.44-0.885,1.005c-0.294,1.988-0.552,3.981-0.714,5.985
		c-0.708,8.77-0.286,17.452,2.208,25.942c4.085,13.904,12.931,23.092,26.977,27.095c0.436,0.125,0.839,0.173,1.285,0.048
		c13.104-3.713,21.93-11.972,26.381-24.856C58.612,34.404,59.468,27.293,59.482,18.991z"/>
	<path fill="#F9F9F9" d="M59.482,18.991c-0.014,8.302-0.87,15.414-3.244,22.284C51.786,54.16,42.961,62.419,29.857,66.133
		c-0.445,0.126-0.85,0.076-1.285-0.047C14.527,62.081,5.681,52.894,1.596,38.989c-2.495-8.493-2.917-17.173-2.208-25.942
		c0.162-2.004,0.42-3.997,0.714-5.985c0.083-0.565,0.324-0.837,0.885-1.005c9.216-2.782,18.424-5.584,27.63-8.394
		c0.478-0.146,0.897-0.128,1.368,0.016C39.161,0.48,48.34,3.274,57.528,6.042c0.601,0.181,0.847,0.458,0.939,1.065
		C59.127,11.399,59.457,15.716,59.482,18.991z M56.853,19.422c0.021-2.119-0.375-6.145-0.992-10.156
		c-0.088-0.564-0.354-0.779-0.858-0.93c-8.374-2.529-16.747-5.067-25.114-7.621c-0.449-0.137-0.834-0.116-1.272,0.019
		C20.277,3.276,11.938,5.809,3.589,8.319C2.977,8.504,2.762,8.815,2.677,9.418c-0.229,1.648-0.468,3.294-0.619,4.952
		C1.3,22.732,1.68,31.002,4.208,39.072c3.868,12.347,11.928,20.446,24.461,23.967c0.338,0.095,0.651,0.174,1.008,0.073
		c10.172-2.814,17.816-8.732,22.435-18.322C55.675,37.39,56.817,29.488,56.853,19.422z"/>
	<path fill="#010101" d="M56.853,19.422c-0.036,10.066-1.178,17.967-4.741,25.368c-4.618,9.591-12.263,15.51-22.435,18.324
		c-0.356,0.099-0.671,0.021-1.008-0.074C16.135,59.517,8.075,51.419,4.208,39.072C1.68,31.002,1.3,22.733,2.06,14.369
		c0.151-1.659,0.392-3.304,0.619-4.953C2.762,8.814,2.977,8.502,3.59,8.318c8.349-2.51,16.688-5.043,25.027-7.585
		c0.438-0.134,0.821-0.156,1.272-0.019c8.366,2.553,16.739,5.092,25.114,7.621c0.502,0.15,0.77,0.364,0.857,0.93
		C56.478,13.276,56.873,17.303,56.853,19.422z M49.026,19.645c0.023-0.874-0.578-1.687-1.41-1.946
		c-0.989-0.309-1.667,0.186-2.321,0.843c-6.746,6.76-13.515,13.497-20.238,20.278c-0.613,0.618-0.883,0.521-1.427-0.03
		c-2.972-3.027-5.979-6.016-8.985-9.007c-1.021-1.017-2.229-1.089-3.066-0.218c-0.831,0.864-0.743,1.984,0.269,2.999
		c3.642,3.643,7.288,7.281,10.94,10.914c1.035,1.029,2.089,1.04,3.121,0.008c7.468-7.457,14.928-14.924,22.396-22.383
		C48.726,20.68,48.955,20.189,49.026,19.645z"/>
	<path fill="#FEFEFE" d="M49.026,19.645c-0.07,0.544-0.301,1.035-0.722,1.455c-7.468,7.459-14.927,14.927-22.396,22.383
		c-1.032,1.032-2.086,1.022-3.121-0.007c-3.653-3.633-7.298-7.271-10.94-10.915c-1.012-1.014-1.1-2.134-0.269-2.998
		c0.837-0.872,2.045-0.798,3.066,0.218c3.005,2.993,6.013,5.979,8.985,9.005c0.544,0.554,0.814,0.65,1.427,0.032
		C31.78,32.037,38.548,25.3,45.294,18.54c0.654-0.658,1.333-1.151,2.321-0.843C48.448,17.958,49.05,18.771,49.026,19.645z"/>
</g>
<rect x="75.758" y="-5.78" fill="none" stroke="#000000" stroke-miterlimit="10" width="88" height="87.999"/>
</svg>
