<?xml version="1.0" encoding="utf-8"?>
<!-- Generator: Adobe Illustrator 16.0.0, SVG Export Plug-In . SVG Version: 6.00 Build 0)  -->
<!DOCTYPE svg PUBLIC "-//W3C//DTD SVG 1.1//EN" "http://www.w3.org/Graphics/SVG/1.1/DTD/svg11.dtd">
<svg version="1.1" id="Calque_1" xmlns="http://www.w3.org/2000/svg" xmlns:xlink="http://www.w3.org/1999/xlink" x="0px" y="0px"
	 width="88px" height="87.999px" viewBox="-9.47 -12.046 88 87.999" enable-background="new -9.47 -12.046 88 87.999"
	 xml:space="preserve">
<g>
	<path d="M12.154,43.576c-1.714,0-3.218,0.008-4.722,0c-5.104-0.029-8.69-3.551-8.708-8.635c-0.027-8.785-0.027-17.571,0-26.356
		c0.018-5.105,3.482-8.597,8.587-8.608c13.403-0.03,26.808-0.033,40.209,0.002c5.085,0.014,8.634,3.64,8.643,8.715
		c0.015,8.625,0.009,17.25,0.003,25.876c-0.003,5.35-3.561,8.912-8.935,8.926c-6.541,0.016-13.082,0.014-19.624-0.01
		c-0.667-0.004-1.116,0.199-1.576,0.68c-1.971,2.055-3.843,4.236-6.021,6.043c-2.55,2.115-5.618,3.443-8.734,4.564
		c-0.665,0.238-1.452,0.301-2.158,0.221c-1.145-0.129-1.393-0.734-0.688-1.639c1.717-2.201,2.639-4.742,3.31-7.398
		C11.924,45.223,12.003,44.461,12.154,43.576z M9.732,22.124c-0.036,2.289,1.735,4.125,4,4.144c2.2,0.019,4.051-1.768,4.111-3.972
		c0.063-2.24-1.763-4.115-4.027-4.137C11.58,18.138,9.768,19.897,9.732,22.124z M31.757,21.759c0.011-2.246-1.844-4.116-4.067-4.103
		c-2.181,0.013-4.029,1.867-4.043,4.052c-0.013,2.218,1.768,4.033,3.993,4.069C29.925,25.814,31.746,24.037,31.757,21.759z
		 M41.576,25.31c2.247,0.001,4.051-1.789,4.044-4.016c-0.008-2.249-1.793-4.026-4.042-4.024c-2.202,0.002-4.047,1.839-4.062,4.041
		C37.503,23.529,39.309,25.309,41.576,25.31z"/>
	<path d="M61.401,13.987c5.312-0.357,8.935,3.005,8.944,8.228c0.019,8.146,0.013,16.292,0.002,24.439
		c-0.007,5.119-3.219,8.338-8.343,8.395c-0.315,0.004-0.63,0-1.188,0c0.157,1.27,0.144,2.475,0.484,3.568
		c0.437,1.396,1.141,2.711,1.77,4.041c0.354,0.75,0.229,1.219-0.612,1.262c-1.037,0.057-2.161,0.082-3.12-0.25
		c-4.162-1.438-7.444-3.973-9.262-8.105c-0.26-0.59-0.647-0.512-1.079-0.514c-6.575-0.002-13.15,0-19.726-0.006
		c-0.512,0-1.058,0.064-1.528-0.086c-0.773-0.248-1.58-0.533-2.225-1.008c-0.975-0.715-0.922-0.977-0.081-1.871
		c0.989-1.051,1.991-2.09,2.941-3.176c0.415-0.473,0.84-0.67,1.48-0.668c7.924,0.023,15.845,0.029,23.767,0.006
		c3.762-0.01,6.861-2.557,7.624-6.229c0.142-0.684,0.145-1.4,0.146-2.104c0.01-8.436,0.007-16.871,0.005-25.306
		C61.401,14.42,61.401,14.234,61.401,13.987z"/>
	<path fill="#FFFFFF" d="M9.732,22.124c0.036-2.227,1.849-3.986,4.083-3.965c2.265,0.022,4.09,1.896,4.027,4.137
		c-0.061,2.204-1.911,3.991-4.111,3.972C11.468,26.249,9.697,24.413,9.732,22.124z"/>
	<path fill="#FFFFFF" d="M31.757,21.759c-0.011,2.279-1.832,4.056-4.118,4.019c-2.226-0.036-4.006-1.851-3.993-4.069
		c0.014-2.185,1.863-4.039,4.043-4.052C29.913,17.642,31.767,19.513,31.757,21.759z"/>
	<path fill="#FFFFFF" d="M41.576,25.31c-2.268-0.001-4.072-1.781-4.06-3.999c0.015-2.202,1.858-4.039,4.062-4.041
		c2.249-0.002,4.034,1.775,4.042,4.024C45.626,23.521,43.823,25.312,41.576,25.31z"/>
</g>
<rect x="82.364" y="-10.499" fill="none" stroke="#000000" stroke-miterlimit="10" width="88" height="87.999"/>
</svg>
